<svg xmlns="http://www.w3.org/2000/svg" width="2040" height="1118.4" viewBox="0 0 1020 559.2"><defs><style>*{font-family:monospace}</style></defs><path fill="#fff" d="M0 0h1020v559.2H0z"/><path fill="none" stroke="#1e1e1e" stroke-linecap="round" stroke-width="2" d="M270 10h200m-200 0h200m0 0v80m0-80v80m0 0H270m200 0H270m0 0V10m0 80V10"/><text x="75" y="15.45" fill="#1e1e1e" dominant-baseline="alphabetic" font-size="16" style="white-space:pre" text-anchor="middle" transform="translate(295 30.8)">Copy stylesheets</text><text x="75" y="34.65" fill="#1e1e1e" dominant-baseline="alphabetic" font-size="16" style="white-space:pre" text-anchor="middle" transform="translate(295 30.8)">and other assets</text><path fill="none" stroke="#1e1e1e" stroke-linecap="round" stroke-width="2" d="M790 10h200m-200 0h200m0 0v80m0-80v80m0 0H790m200 0H790m0 0V10m0 80V10"/><text x="28.125" y="15.45" fill="#1e1e1e" dominant-baseline="alphabetic" font-size="16" style="white-space:pre" text-anchor="middle" transform="translate(861.875 40.4)">Output</text><path fill="none" stroke="#1e1e1e" stroke-linecap="round" stroke-width="2" d="M270 150h200m-200 0h200m0 0v80m0-80v80m0 0H270m200 0H270m0 0v-80m0 80v-80"/><text x="75" y="15.45" fill="#1e1e1e" dominant-baseline="alphabetic" font-size="16" style="white-space:pre" text-anchor="middle" transform="translate(295 170.8)">Build page using</text><text x="75" y="34.65" fill="#1e1e1e" dominant-baseline="alphabetic" font-size="16" style="white-space:pre" text-anchor="middle" transform="translate(295 170.8)"> template</text><path fill="none" stroke="#1e1e1e" stroke-linecap="round" stroke-width="2" d="M550 410h200m-200 0h200m0 0v80m0-80v80m0 0H550m200 0H550m0 0v-80m0 80v-80"/><text x="56.25" y="15.45" fill="#1e1e1e" dominant-baseline="alphabetic" font-size="16" style="white-space:pre" text-anchor="middle" transform="translate(593.75 430.8)">Get created </text><text x="56.25" y="34.65" fill="#1e1e1e" dominant-baseline="alphabetic" font-size="16" style="white-space:pre" text-anchor="middle" transform="translate(593.75 430.8)">pages info</text><path fill="none" stroke="#1e1e1e" stroke-linecap="round" stroke-width="2" d="M30 270h200m-200 0h200m0 0v80m0-80v80m0 0H30m200 0H30m0 0v-80m0 80v-80"/><text x="70.313" y="15.45" fill="#1e1e1e" dominant-baseline="alphabetic" font-size="16" style="white-space:pre" text-anchor="middle" transform="translate(59.688 300.4)">Optimize images</text><g stroke-linecap="round"><path fill="none" stroke="#1e1e1e" stroke-width="2" d="M490 270h160m-160 0h160m0 0v120m0-120v120M641.45 366.51c2.7 7.41 5.39 14.82 8.55 23.49m-8.55-23.49c2.34 6.42 4.68 12.85 8.55 23.49M658.55 366.51c-2.7 7.41-5.39 14.82-8.55 23.49m8.55-23.49c-2.34 6.42-4.68 12.85-8.55 23.49"/></g><path fill="none" stroke="#1e1e1e" stroke-linecap="round" stroke-width="2" d="M30 150h200m-200 0h200m0 0v80m0-80v80m0 0H30m200 0H30m0 0v-80m0 80v-80"/><text x="89.063" y="15.45" fill="#1e1e1e" dominant-baseline="alphabetic" font-size="16" style="white-space:pre" text-anchor="middle" transform="translate(40.938 170.8)">Transform markdown </text><text x="89.063" y="34.65" fill="#1e1e1e" dominant-baseline="alphabetic" font-size="16" style="white-space:pre" text-anchor="middle" transform="translate(40.938 170.8)">to HTML</text><g stroke-linecap="round"><path fill="none" stroke="#1e1e1e" stroke-width="2" d="M231 190h38m-38 0h38M251.15 196.5c6.96-2.54 13.93-5.07 17.85-6.5m-17.85 6.5c6.59-2.4 13.19-4.8 17.85-6.5M251.15 183.5c6.96 2.54 13.93 5.07 17.85 6.5m-17.85-6.5c6.59 2.4 13.19 4.8 17.85 6.5"/></g><path fill="none" stroke="#1e1e1e" stroke-dasharray="1.5 8" stroke-linecap="round" stroke-width="2.5" d="M10 130h480m0 0v240m0 0H10m0 0V130"/><text y="15.45" fill="#1e1e1e" dominant-baseline="alphabetic" font-size="16" style="white-space:pre" transform="translate(10 390)">Content build step</text><path fill="none" stroke="#1e1e1e" stroke-linecap="round" stroke-width="2" d="M790 410h200m-200 0h200m0 0v80m0-80v80m0 0H790m200 0H790m0 0v-80m0 80v-80"/><text x="75" y="15.45" fill="#1e1e1e" dominant-baseline="alphabetic" font-size="16" style="white-space:pre" text-anchor="middle" transform="translate(815 430.8)">Build page using</text><text x="75" y="34.65" fill="#1e1e1e" dominant-baseline="alphabetic" font-size="16" style="white-space:pre" text-anchor="middle" transform="translate(815 430.8)">template</text><g stroke-linecap="round"><path fill="none" stroke="#1e1e1e" stroke-width="2" d="M751 450h38m-38 0h38M771.15 456.5c6.13-2.23 12.25-4.46 17.85-6.5m-17.85 6.5c4.55-1.66 9.11-3.32 17.85-6.5M771.15 443.5c6.13 2.23 12.25 4.46 17.85 6.5m-17.85-6.5c4.55 1.66 9.11 3.32 17.85 6.5"/></g><path fill="none" stroke="#1e1e1e" stroke-dasharray="1.5 8" stroke-linecap="round" stroke-width="2.5" d="M530 390h480m0 0v120m0 0H530m0 0V390"/><text y="15.45" fill="#1e1e1e" dominant-baseline="alphabetic" font-size="16" style="white-space:pre" transform="translate(530 530)">Index build step</text><g stroke-linecap="round"><path fill="none" stroke="#1e1e1e" stroke-width="2" d="M910 390V90m0 300V90M918.55 113.49c-3.26-8.95-6.52-17.9-8.55-23.49m8.55 23.49c-2.11-5.8-4.22-11.6-8.55-23.49M901.45 113.49c3.26-8.95 6.52-17.9 8.55-23.49m-8.55 23.49c2.11-5.8 4.22-11.6 8.55-23.49"/></g><g stroke-linecap="round"><path fill="none" stroke="#1e1e1e" stroke-width="2" d="M490 229c98.15.26 196.3.52 380 1m-380-1c80.24.21 160.49.42 380 1m0 0V90m0 140V90M878.55 113.49c-2.21-6.07-4.42-12.13-8.55-23.49m8.55 23.49c-1.81-4.96-3.61-9.92-8.55-23.49M861.45 113.49c2.21-6.07 4.42-12.13 8.55-23.49m-8.55 23.49c1.81-4.96 3.61-9.92 8.55-23.49"/></g><g stroke-linecap="round"><path fill="none" stroke="#1e1e1e" stroke-width="2" d="M470 50h320m-320 0h320M766.51 58.55 790 50m-23.49 8.55c7.58-2.76 15.17-5.52 23.49-8.55M766.51 41.45 790 50m-23.49-8.55c7.58 2.76 15.17 5.52 23.49 8.55"/></g></svg>
