<svg xmlns="http://www.w3.org/2000/svg" width="1000" height="1720" viewBox="0 0 500 860"><def><style>*{font-family:monospace}</style></def><path fill="#fff" d="M0 0h500v860H0z"/><path fill="none" stroke="#1e1e1e" stroke-linecap="round" stroke-width="2" d="M50 10h200M50 10h200m0 0v80m0-80v80m0 0H50m200 0H50m0 0V10m0 80V10"/><text x="75" y="15.45" fill="#1e1e1e" dominant-baseline="alphabetic" font-size="16" style="white-space:pre" text-anchor="middle" transform="translate(75 30.8)">Copy stylesheets</text><text x="75" y="34.65" fill="#1e1e1e" dominant-baseline="alphabetic" font-size="16" style="white-space:pre" text-anchor="middle" transform="translate(75 30.8)">and other assets</text><path fill="none" stroke="#1e1e1e" stroke-linecap="round" stroke-width="2" d="M50 170h200m-200 0h200m0 0v80m0-80v80m0 0H50m200 0H50m0 0v-80m0 80v-80"/><text x="89.063" y="15.45" fill="#1e1e1e" dominant-baseline="alphabetic" font-size="16" style="white-space:pre" text-anchor="middle" transform="translate(60.938 190.8)">Transform markdown </text><text x="89.063" y="34.65" fill="#1e1e1e" dominant-baseline="alphabetic" font-size="16" style="white-space:pre" text-anchor="middle" transform="translate(60.938 190.8)">to HTML</text><path fill="none" stroke="#1e1e1e" stroke-linecap="round" stroke-width="2" d="M50 290h200m-200 0h200m0 0v80m0-80v80m0 0H50m200 0H50m0 0v-80m0 80v-80"/><text x="75" y="15.45" fill="#1e1e1e" dominant-baseline="alphabetic" font-size="16" style="white-space:pre" text-anchor="middle" transform="translate(75 310.8)">Build page using</text><text x="75" y="34.65" fill="#1e1e1e" dominant-baseline="alphabetic" font-size="16" style="white-space:pre" text-anchor="middle" transform="translate(75 310.8)"> template</text><g stroke-linecap="round"><path fill="none" stroke="#1e1e1e" stroke-width="2" d="M150 250v40m0-40v40M143.16 271.21c2.43 6.68 4.86 13.36 6.84 18.79m-6.84-18.79c1.38 3.78 2.76 7.57 6.84 18.79M156.84 271.21c-2.43 6.68-4.86 13.36-6.84 18.79m6.84-18.79c-1.38 3.78-2.76 7.57-6.84 18.79"/></g><path fill="none" stroke="#1e1e1e" stroke-linecap="round" stroke-width="2" d="M270 170h200m-200 0h200m0 0v80m0-80v80m0 0H270m200 0H270m0 0v-80m0 80v-80"/><text x="70.313" y="15.45" fill="#1e1e1e" dominant-baseline="alphabetic" font-size="16" style="white-space:pre" text-anchor="middle" transform="translate(299.688 200.4)">Optimize images</text><path fill="none" stroke="#1e1e1e" stroke-linecap="round" stroke-width="2" d="M50 490h200m-200 0h200m0 0v80m0-80v80m0 0H50m200 0H50m0 0v-80m0 80v-80"/><text x="56.25" y="15.45" fill="#1e1e1e" dominant-baseline="alphabetic" font-size="16" style="white-space:pre" text-anchor="middle" transform="translate(93.75 510.8)">Get created </text><text x="56.25" y="34.65" fill="#1e1e1e" dominant-baseline="alphabetic" font-size="16" style="white-space:pre" text-anchor="middle" transform="translate(93.75 510.8)">pages info</text><path fill="none" stroke="#1e1e1e" stroke-linecap="round" stroke-width="2" d="M50 610h200m-200 0h200m0 0v80m0-80v80m0 0H50m200 0H50m0 0v-80m0 80v-80"/><text x="75" y="15.45" fill="#1e1e1e" dominant-baseline="alphabetic" font-size="16" style="white-space:pre" text-anchor="middle" transform="translate(75 630.8)">Build page using</text><text x="75" y="34.65" fill="#1e1e1e" dominant-baseline="alphabetic" font-size="16" style="white-space:pre" text-anchor="middle" transform="translate(75 630.8)">template</text><g stroke-linecap="round"><path fill="none" stroke="#1e1e1e" stroke-width="2" d="M150 571v38m0-38v38M143.5 591.15c1.96 5.38 3.92 10.76 6.5 17.85m-6.5-17.85c1.67 4.59 3.35 9.18 6.5 17.85M156.5 591.15c-1.96 5.38-3.92 10.76-6.5 17.85m6.5-17.85c-1.67 4.59-3.35 9.18-6.5 17.85"/></g><path fill="none" stroke="#1e1e1e" stroke-linecap="round" stroke-width="2" d="M50 770h200m-200 0h200m0 0v80m0-80v80m0 0H50m200 0H50m0 0v-80m0 80v-80"/><text x="28.125" y="15.45" fill="#1e1e1e" dominant-baseline="alphabetic" font-size="16" style="white-space:pre" text-anchor="middle" transform="translate(121.875 800.4)">Output</text><g stroke-linecap="round"><path fill="none" stroke="#1e1e1e" stroke-width="2" d="M150 391v78m0-78v78M141.45 445.51c2.4 6.59 4.8 13.18 8.55 23.49m-8.55-23.49c2.92 8.02 5.84 16.04 8.55 23.49M158.55 445.51c-2.4 6.59-4.8 13.18-8.55 23.49m8.55-23.49c-2.92 8.02-5.84 16.04-8.55 23.49"/></g><path fill="none" stroke="#1e1e1e" stroke-dasharray="1.5 8" stroke-linecap="round" stroke-width="2.5" d="M30 150h460m0 0v240m0 0H30m0 0V150"/><g stroke-linecap="round"><path fill="none" stroke="#1e1e1e" stroke-width="2" d="M50 50H10m40 0H10m0 0v768.86M10 50v768.86m0 0h40m-40 0h40M31.21 825.7c6.34-2.31 12.68-4.62 18.79-6.84m-18.79 6.84L50 818.86M31.21 812.02c6.34 2.31 12.68 4.61 18.79 6.84m-18.79-6.84L50 818.86"/></g><path fill="none" stroke="#1e1e1e" stroke-dasharray="1.5 8" stroke-linecap="round" stroke-width="2.5" d="M30 470h460m0 0v240m0 0H30m0 0V470"/><text y="15.45" fill="#1e1e1e" dominant-baseline="alphabetic" font-size="16" style="white-space:pre" transform="translate(321.25 110)">Content build step</text><text y="15.45" fill="#1e1e1e" dominant-baseline="alphabetic" font-size="16" style="white-space:pre" transform="translate(340 430)">Index build step</text><g stroke-linecap="round"><path fill="none" stroke="#1e1e1e" stroke-width="2" d="M150 710v59m0-59v59M141.45 745.51c2.84 7.8 5.68 15.61 8.55 23.49m-8.55-23.49c2.12 5.84 4.25 11.67 8.55 23.49M158.55 745.51c-2.84 7.8-5.68 15.61-8.55 23.49m8.55-23.49c-2.12 5.84-4.25 11.67-8.55 23.49"/></g><path fill="none" stroke="#1e1e1e" stroke-linecap="round" stroke-width="2" d="M150 410H10m140 0H10"/></svg>
