<svg version="1.1" xmlns="http://www.w3.org/2000/svg" viewBox="0 0 1020 559.2" width="2040" height="1118.4">
  <!-- svg-source:excalidraw -->

  <defs>
    <style class="style-fonts">
      * { font-family: "mono", monospace }
    </style>

  </defs>
  <rect x="0" y="0" width="1020" height="559.2" fill="#ffffff"></rect><g stroke-linecap="round" transform="translate(270 10) rotate(0 100 40)"><path d="M0 0 C79.93 0, 159.86 0, 200 0 M0 0 C61.41 0, 122.83 0, 200 0 M200 0 C200 25.85, 200 51.7, 200 80 M200 0 C200 30.07, 200 60.14, 200 80 M200 80 C142.85 80, 85.69 80, 0 80 M200 80 C134.82 80, 69.64 80, 0 80 M0 80 C0 57.85, 0 35.71, 0 0 M0 80 C0 53.88, 0 27.76, 0 0" stroke="#1e1e1e" stroke-width="2" fill="none"></path></g><g transform="translate(295 30.80000000000001) rotate(0 75 19.19999999999999)"><text x="75" y="15.45" font-size="16px" fill="#1e1e1e" text-anchor="middle" style="white-space: pre;" direction="ltr" dominant-baseline="alphabetic">Copy stylesheets</text><text x="75" y="34.65" font-size="16px" fill="#1e1e1e" text-anchor="middle" style="white-space: pre;" direction="ltr" dominant-baseline="alphabetic">and other assets</text></g><g stroke-linecap="round" transform="translate(790 10) rotate(0 100 40)"><path d="M0 0 C48.47 0, 96.94 0, 200 0 M0 0 C62.66 0, 125.32 0, 200 0 M200 0 C200 23.61, 200 47.22, 200 80 M200 0 C200 20.4, 200 40.8, 200 80 M200 80 C136.67 80, 73.33 80, 0 80 M200 80 C152.69 80, 105.38 80, 0 80 M0 80 C0 55.42, 0 30.84, 0 0 M0 80 C0 60.69, 0 41.38, 0 0" stroke="#1e1e1e" stroke-width="2" fill="none"></path></g><g transform="translate(861.875 40.39999999999998) rotate(0 28.125 9.599999999999994)"><text x="28.125" y="15.45" font-size="16px" fill="#1e1e1e" text-anchor="middle" style="white-space: pre;" direction="ltr" dominant-baseline="alphabetic">Output</text></g><g stroke-linecap="round"><g transform="translate(471 50) rotate(0 159 0)"><path d="M0 0 C78.82 0, 157.63 0, 318 0 M0 0 C104.59 0, 209.17 0, 318 0" stroke="#1e1e1e" stroke-width="2" fill="none"></path></g><g transform="translate(471 50) rotate(0 159 0)"><path d="M294.51 8.55 C300.33 6.43, 306.15 4.31, 318 0 M294.51 8.55 C302.23 5.74, 309.96 2.93, 318 0" stroke="#1e1e1e" stroke-width="2" fill="none"></path></g><g transform="translate(471 50) rotate(0 159 0)"><path d="M294.51 -8.55 C300.33 -6.43, 306.15 -4.31, 318 0 M294.51 -8.55 C302.23 -5.74, 309.96 -2.93, 318 0" stroke="#1e1e1e" stroke-width="2" fill="none"></path></g></g><mask></mask><g stroke-linecap="round" transform="translate(270 150) rotate(0 100 40)"><path d="M0 0 C49.1 0, 98.21 0, 200 0 M0 0 C54.32 0, 108.63 0, 200 0 M200 0 C200 19.61, 200 39.22, 200 80 M200 0 C200 28.91, 200 57.82, 200 80 M200 80 C159.03 80, 118.06 80, 0 80 M200 80 C152.57 80, 105.13 80, 0 80 M0 80 C0 60, 0 40, 0 0 M0 80 C0 51.42, 0 22.83, 0 0" stroke="#1e1e1e" stroke-width="2" fill="none"></path></g><g transform="translate(295 170.8) rotate(0 75 19.19999999999999)"><text x="75" y="15.45" font-size="16px" fill="#1e1e1e" text-anchor="middle" style="white-space: pre;" direction="ltr" dominant-baseline="alphabetic">Build page using</text><text x="75" y="34.65" font-size="16px" fill="#1e1e1e" text-anchor="middle" style="white-space: pre;" direction="ltr" dominant-baseline="alphabetic"> template</text></g><g stroke-linecap="round" transform="translate(550 410) rotate(0 100 40)"><path d="M0 0 C59.43 0, 118.87 0, 200 0 M0 0 C59.44 0, 118.88 0, 200 0 M200 0 C200 31.58, 200 63.17, 200 80 M200 0 C200 25.21, 200 50.43, 200 80 M200 80 C142.5 80, 84.99 80, 0 80 M200 80 C159.37 80, 118.75 80, 0 80 M0 80 C0 59.11, 0 38.22, 0 0 M0 80 C0 50.5, 0 21.01, 0 0" stroke="#1e1e1e" stroke-width="2" fill="none"></path></g><g transform="translate(593.75 430.79999999999995) rotate(0 56.25 19.19999999999999)"><text x="56.25" y="15.45" font-size="16px" fill="#1e1e1e" text-anchor="middle" style="white-space: pre;" direction="ltr" dominant-baseline="alphabetic">Get created </text><text x="56.25" y="34.65" font-size="16px" fill="#1e1e1e" text-anchor="middle" style="white-space: pre;" direction="ltr" dominant-baseline="alphabetic">pages info</text></g><g stroke-linecap="round"><g transform="translate(230 310) rotate(0 210 50)"><path d="M0 0 C146.55 0, 293.11 0, 420 0 M0 0 C107.71 0, 215.42 0, 420 0 M420 0 C420 39.44, 420 78.88, 420 100 M420 0 C420 38.69, 420 77.38, 420 100" stroke="#1e1e1e" stroke-width="2" fill="none"></path></g><g transform="translate(230 310) rotate(0 210 50)"><path d="M411.45 76.51 C414.43 84.71, 417.42 92.9, 420 100 M411.45 76.51 C413.64 82.53, 415.84 88.56, 420 100" stroke="#1e1e1e" stroke-width="2" fill="none"></path></g><g transform="translate(230 310) rotate(0 210 50)"><path d="M428.55 76.51 C425.57 84.71, 422.58 92.9, 420 100 M428.55 76.51 C426.36 82.53, 424.16 88.56, 420 100" stroke="#1e1e1e" stroke-width="2" fill="none"></path></g></g><mask></mask><g stroke-linecap="round" transform="translate(30 270) rotate(0 100 40)"><path d="M0 0 C70.35 0, 140.69 0, 200 0 M0 0 C78.06 0, 156.11 0, 200 0 M200 0 C200 31.45, 200 62.9, 200 80 M200 0 C200 23.89, 200 47.77, 200 80 M200 80 C131.99 80, 63.98 80, 0 80 M200 80 C128.15 80, 56.3 80, 0 80 M0 80 C0 55.45, 0 30.91, 0 0 M0 80 C0 62.68, 0 45.35, 0 0" stroke="#1e1e1e" stroke-width="2" fill="none"></path></g><g transform="translate(59.6875 300.4) rotate(0 70.3125 9.600000000000023)"><text x="70.3125" y="15.45" font-size="16px" fill="#1e1e1e" text-anchor="middle" style="white-space: pre;" direction="ltr" dominant-baseline="alphabetic">Optimize images</text></g><g stroke-linecap="round"><g transform="translate(470 210) rotate(0 90 100)"><path d="M0 0 C56.78 0, 113.57 0, 180 0 M0 0 C49.24 0, 98.48 0, 180 0 M180 0 C180 59.84, 180 119.68, 180 200 M180 0 C180 61.33, 180 122.66, 180 200" stroke="#1e1e1e" stroke-width="2" fill="none"></path></g><g transform="translate(470 210) rotate(0 90 100)"><path d="M171.45 176.51 C174.15 183.92, 176.84 191.33, 180 200 M171.45 176.51 C173.79 182.93, 176.13 189.36, 180 200" stroke="#1e1e1e" stroke-width="2" fill="none"></path></g><g transform="translate(470 210) rotate(0 90 100)"><path d="M188.55 176.51 C185.85 183.92, 183.16 191.33, 180 200 M188.55 176.51 C186.21 182.93, 183.87 189.36, 180 200" stroke="#1e1e1e" stroke-width="2" fill="none"></path></g></g><mask></mask><g stroke-linecap="round" transform="translate(30 150) rotate(0 100 40)"><path d="M0 0 C73.55 0, 147.11 0, 200 0 M0 0 C57.07 0, 114.15 0, 200 0 M200 0 C200 26.68, 200 53.36, 200 80 M200 0 C200 22.67, 200 45.33, 200 80 M200 80 C120.66 80, 41.31 80, 0 80 M200 80 C123.38 80, 46.76 80, 0 80 M0 80 C0 53.89, 0 27.77, 0 0 M0 80 C0 56.06, 0 32.11, 0 0" stroke="#1e1e1e" stroke-width="2" fill="none"></path></g><g transform="translate(40.9375 170.8) rotate(0 89.0625 19.19999999999999)"><text x="89.0625" y="15.45" font-size="16px" fill="#1e1e1e" text-anchor="middle" style="white-space: pre;" direction="ltr" dominant-baseline="alphabetic">Transform markdown </text><text x="89.0625" y="34.65" font-size="16px" fill="#1e1e1e" text-anchor="middle" style="white-space: pre;" direction="ltr" dominant-baseline="alphabetic">to HTML</text></g><g stroke-linecap="round"><g transform="translate(230 190) rotate(0 20 0)"><path d="M0 0 C15.61 0, 31.22 0, 40 0 M0 0 C14.78 0, 29.55 0, 40 0" stroke="#1e1e1e" stroke-width="2" fill="none"></path></g><g transform="translate(230 190) rotate(0 20 0)"><path d="M21.21 6.84 C28.54 4.17, 35.88 1.5, 40 0 M21.21 6.84 C28.15 4.31, 35.09 1.79, 40 0" stroke="#1e1e1e" stroke-width="2" fill="none"></path></g><g transform="translate(230 190) rotate(0 20 0)"><path d="M21.21 -6.84 C28.54 -4.17, 35.88 -1.5, 40 0 M21.21 -6.84 C28.15 -4.31, 35.09 -1.79, 40 0" stroke="#1e1e1e" stroke-width="2" fill="none"></path></g></g><mask></mask><g stroke-linecap="round" transform="translate(10 130) rotate(0 240 120)"><path d="M0 0 C186.2 0, 372.41 0, 480 0 M480 0 C480 50.67, 480 101.35, 480 240 M480 240 C342.45 240, 204.9 240, 0 240 M0 240 C0 175.59, 0 111.19, 0 0" stroke="#1e1e1e" stroke-width="2.5" fill="none" stroke-dasharray="1.5 8"></path></g><g transform="translate(10 390) rotate(0 84.375 9.600000000000023)"><text x="0" y="15.45" font-size="16px" fill="#1e1e1e" text-anchor="start" style="white-space: pre;" direction="ltr" dominant-baseline="alphabetic">Content build step</text></g><g stroke-linecap="round" transform="translate(790 410) rotate(0 100 40)"><path d="M0 0 C60.5 0, 121 0, 200 0 M0 0 C42.3 0, 84.6 0, 200 0 M200 0 C200 20.88, 200 41.77, 200 80 M200 0 C200 23.11, 200 46.22, 200 80 M200 80 C120.4 80, 40.8 80, 0 80 M200 80 C153.97 80, 107.95 80, 0 80 M0 80 C0 55.29, 0 30.58, 0 0 M0 80 C0 56.14, 0 32.27, 0 0" stroke="#1e1e1e" stroke-width="2" fill="none"></path></g><g transform="translate(815 430.79999999999995) rotate(0 75 19.19999999999999)"><text x="75" y="15.45" font-size="16px" fill="#1e1e1e" text-anchor="middle" style="white-space: pre;" direction="ltr" dominant-baseline="alphabetic">Build page using</text><text x="75" y="34.65" font-size="16px" fill="#1e1e1e" text-anchor="middle" style="white-space: pre;" direction="ltr" dominant-baseline="alphabetic">template</text></g><g stroke-linecap="round"><g transform="translate(751 449.99999998399574) rotate(0 19 2.1876189748581965e-9)"><path d="M0 0 C13.05 0, 26.09 0, 38 0 M0 0 C9.7 0, 19.4 0, 38 0" stroke="#1e1e1e" stroke-width="2" fill="none"></path></g><g transform="translate(751 449.99999998399574) rotate(0 19 2.1876189748581965e-9)"><path d="M20.15 6.5 C26.28 4.27, 32.4 2.04, 38 0 M20.15 6.5 C24.7 4.84, 29.26 3.18, 38 0" stroke="#1e1e1e" stroke-width="2" fill="none"></path></g><g transform="translate(751 449.99999998399574) rotate(0 19 2.1876189748581965e-9)"><path d="M20.15 -6.5 C26.28 -4.27, 32.4 -2.04, 38 0 M20.15 -6.5 C24.7 -4.84, 29.26 -3.18, 38 0" stroke="#1e1e1e" stroke-width="2" fill="none"></path></g></g><mask></mask><g stroke-linecap="round" transform="translate(530 390) rotate(0 240 60)"><path d="M0 0 C100.67 0, 201.34 0, 480 0 M480 0 C480 27.67, 480 55.34, 480 120 M480 120 C336.83 120, 193.65 120, 0 120 M0 120 C0 88.47, 0 56.95, 0 0" stroke="#1e1e1e" stroke-width="2.5" fill="none" stroke-dasharray="1.5 8"></path></g><g transform="translate(530 530) rotate(0 75 9.600000000000023)"><text x="0" y="15.45" font-size="16px" fill="#1e1e1e" text-anchor="start" style="white-space: pre;" direction="ltr" dominant-baseline="alphabetic">Index build step</text></g><g stroke-linecap="round"><g transform="translate(890 410) rotate(0 0 -160)"><path d="M0 0 C0 -121.95, 0 -243.9, 0 -320 M0 0 C0 -79.01, 0 -158.01, 0 -320" stroke="#1e1e1e" stroke-width="2" fill="none"></path></g><g transform="translate(890 410) rotate(0 0 -160)"><path d="M8.55 -296.51 C5.29 -305.46, 2.03 -314.41, 0 -320 M8.55 -296.51 C6.44 -302.31, 4.33 -308.11, 0 -320" stroke="#1e1e1e" stroke-width="2" fill="none"></path></g><g transform="translate(890 410) rotate(0 0 -160)"><path d="M-8.55 -296.51 C-5.29 -305.46, -2.03 -314.41, 0 -320 M-8.55 -296.51 C-6.44 -302.31, -4.33 -308.11, 0 -320" stroke="#1e1e1e" stroke-width="2" fill="none"></path></g></g><mask></mask><g stroke-linecap="round"><g transform="translate(470 170) rotate(0 190 -40)"><path d="M0 0 C98.15 0, 196.3 0, 380 0 M0 0 C80.24 0, 160.49 0, 380 0 M380 0 C380 -19.72, 380 -39.44, 380 -80 M380 0 C380 -26.67, 380 -53.33, 380 -80" stroke="#1e1e1e" stroke-width="2" fill="none"></path></g><g transform="translate(470 170) rotate(0 190 -40)"><path d="M388.55 -56.51 C386.34 -62.58, 384.13 -68.64, 380 -80 M388.55 -56.51 C386.74 -61.47, 384.94 -66.43, 380 -80" stroke="#1e1e1e" stroke-width="2" fill="none"></path></g><g transform="translate(470 170) rotate(0 190 -40)"><path d="M371.45 -56.51 C373.66 -62.58, 375.87 -68.64, 380 -80 M371.45 -56.51 C373.26 -61.47, 375.06 -66.43, 380 -80" stroke="#1e1e1e" stroke-width="2" fill="none"></path></g></g><mask></mask></svg>
